<?xml version="1.0" standalone="no"?>
<!DOCTYPE svg PUBLIC "-//W3C//DTD SVG 20010904//EN"
 "http://www.w3.org/TR/2001/REC-SVG-20010904/DTD/svg10.dtd">
<svg version="1.0" xmlns="http://www.w3.org/2000/svg"
 width="328.000000pt" height="328.000000pt" viewBox="0 0 328.000000 328.000000"
 preserveAspectRatio="xMidYMid meet">
<metadata>
Created by potrace 1.14, written by Peter Selinger 2001-2017
</metadata>
<g transform="translate(0.000000,328.000000) scale(0.100000,-0.100000)"
fill="#000000" stroke="none">
<path d="M320 1640 l0 -1640 454 0 c354 0 455 3 458 12 2 7 3 744 3 1638 l-1
1625 -457 3 -457 2 0 -1640z"/>
<path d="M1380 2966 l0 -316 138 0 c75 -1 155 -3 177 -6 125 -16 220 -76 267
-167 41 -82 50 -128 54 -287 3 -130 0 -167 -17 -230 -35 -135 -114 -221 -234
-255 -74 -21 -97 -23 -247 -24 l-138 -1 0 -296 0 -296 283 5 c155 3 296 7 312
10 255 38 433 101 595 210 65 44 169 152 219 226 87 127 147 300 170 481 10
76 8 354 -3 400 -3 13 -8 42 -11 63 -16 106 -79 255 -154 365 -44 64 -143 163
-212 210 -123 83 -331 164 -484 186 -58 9 -96 15 -130 22 -16 3 -155 8 -307
11 l-278 6 0 -317z"/>
</g>
</svg>
